<svg width="1091" height="972" viewBox="0 0 1091 972" fill="none" xmlns="http://www.w3.org/2000/svg">
<g clip-path="url(#clip0_5520_320)">
<path d="M224.847 530.038C226.303 534.679 226.926 537.102 226.338 539.298C225.176 543.635 221.391 544.875 217.051 543.713C215.138 543.2 213.904 542.867 211.218 540.407C211.218 540.407 209.692 538.015 204.909 536.937C200.184 535.468 197.659 536.799 197.659 536.799C194.103 537.585 192.917 537.248 191.007 536.737C186.667 535.574 184.006 532.609 185.169 528.27C185.758 526.074 187.512 524.29 191.092 520.996C191.092 520.996 197.969 514.368 203.089 511.756C206.788 509.871 211.13 511.045 211.13 511.045L212.47 511.404C212.47 511.404 217.008 512.607 219.081 516.041C222.045 520.964 224.847 530.039 224.847 530.038ZM202.613 503.098C207.15 504.314 212.363 499.568 214.258 492.499C216.152 485.43 214.01 478.713 209.473 477.497C204.936 476.282 199.723 481.028 197.829 488.097C195.934 495.166 198.076 501.883 202.613 503.098ZM191.419 513.386C195.177 512.738 197.406 507.469 196.397 501.616C195.388 495.762 191.525 491.541 187.768 492.188C184.011 492.835 181.782 498.106 182.79 503.959C183.799 509.812 187.662 514.032 191.419 513.386ZM221.712 508.216C226.249 509.432 231.463 504.686 233.357 497.617C235.251 490.548 233.108 483.831 228.571 482.615C224.034 481.399 218.821 486.145 216.927 493.214C215.033 500.283 217.175 507 221.712 508.216ZM240.025 506.189C237.093 503.749 231.639 505.473 227.838 510.039C224.037 514.605 223.333 520.283 226.265 522.723C229.196 525.162 234.651 523.438 238.452 518.873C242.252 514.308 242.956 508.629 240.025 506.189Z" fill="#F1CDB3"/>
</g>
<line x1="816.5" y1="319" x2="816.5" y2="335" stroke="#F1CDB3"/>
<line x1="819" y1="316.5" x2="835" y2="316.5" stroke="#F1CDB3"/>
<line x1="816.5" y1="298" x2="816.5" y2="314" stroke="#F1CDB3"/>
<line x1="798" y1="316.5" x2="814" y2="316.5" stroke="#F1CDB3"/>
<line x1="18.5" y1="475" x2="18.5" y2="491" stroke="#F1CDB3"/>
<line x1="21" y1="472.5" x2="37" y2="472.5" stroke="#F1CDB3"/>
<line x1="18.5" y1="454" x2="18.5" y2="470" stroke="#F1CDB3"/>
<line y1="472.5" x2="16" y2="472.5" stroke="#F1CDB3"/>
<g clip-path="url(#clip1_5520_320)">
<path d="M942.358 116.777C945.939 120.067 947.69 121.855 948.279 124.051C949.441 128.388 946.783 131.354 942.443 132.517C940.531 133.03 939.295 133.358 935.739 132.571C935.739 132.571 933.222 131.262 928.54 132.72C923.714 133.811 922.192 136.226 922.192 136.226C919.506 138.684 918.311 138.986 916.4 139.498C912.061 140.661 908.274 139.424 907.111 135.084C906.523 132.888 907.15 130.466 908.604 125.824C908.604 125.824 911.246 116.645 914.373 111.823C916.634 108.341 920.981 107.187 920.981 107.187L922.322 106.828C922.322 106.828 926.853 105.6 930.366 107.537C935.394 110.319 942.358 116.778 942.358 116.777ZM909.633 104.563C914.17 103.348 916.312 96.6308 914.417 89.5616C912.523 82.4925 907.31 77.7465 902.773 78.9622C898.236 80.1778 896.094 86.8946 897.988 93.9637C899.883 101.033 905.096 105.779 909.633 104.563ZM905.082 119.07C908.012 116.63 907.308 110.952 903.508 106.387C899.708 101.822 894.252 100.098 891.321 102.537C888.391 104.976 889.096 110.655 892.895 115.22C896.696 119.784 902.151 121.507 905.082 119.07ZM928.731 99.4458C933.268 98.2301 935.411 91.5131 933.517 84.4439C931.623 77.3747 926.408 72.6291 921.871 73.8448C917.334 75.0604 915.193 81.7772 917.087 88.8463C918.981 95.9155 924.194 100.661 928.731 99.4458ZM943.577 88.5337C939.819 87.8862 935.957 92.1068 934.948 97.9613C933.94 103.816 936.169 109.085 939.928 109.733C943.686 110.379 947.548 106.159 948.557 100.305C949.566 94.4519 947.336 89.1812 943.577 88.5337Z" fill="#F1CDB3"/>
</g>
<line x1="820.5" y1="737" x2="820.5" y2="753" stroke="#F1CDB3"/>
<line x1="823" y1="734.5" x2="839" y2="734.5" stroke="#F1CDB3"/>
<line x1="820.5" y1="716" x2="820.5" y2="732" stroke="#F1CDB3"/>
<line x1="802" y1="734.5" x2="818" y2="734.5" stroke="#F1CDB3"/>
<line x1="1072.5" y1="21" x2="1072.5" y2="37" stroke="#F1CDB3"/>
<line x1="1075" y1="18.5" x2="1091" y2="18.5" stroke="#F1CDB3"/>
<line x1="1072.5" y1="2.18557e-08" x2="1072.5" y2="16" stroke="#F1CDB3"/>
<line x1="1054" y1="18.5" x2="1070" y2="18.5" stroke="#F1CDB3"/>
<g clip-path="url(#clip2_5520_320)">
<path d="M756.011 944.43C759.592 947.72 761.343 949.508 761.932 951.704C763.094 956.041 760.436 959.007 756.097 960.17C754.184 960.682 752.948 961.011 749.393 960.224C749.393 960.224 746.875 958.915 742.194 960.373C737.367 961.464 735.845 963.879 735.845 963.879C733.159 966.337 731.964 966.639 730.054 967.151C725.714 968.314 721.927 967.077 720.765 962.737C720.176 960.541 720.803 958.119 722.258 953.476C722.258 953.476 724.899 944.298 728.027 939.475C730.287 935.994 734.634 934.84 734.634 934.84L735.975 934.481C735.975 934.481 740.506 933.253 744.019 935.19C749.048 937.972 756.011 944.431 756.011 944.43ZM723.286 932.216C727.823 931 729.965 924.284 728.071 917.215C726.176 910.145 720.963 905.399 716.426 906.615C711.889 907.831 709.747 914.548 711.642 921.617C713.536 928.686 718.749 933.432 723.286 932.216ZM718.735 946.723C721.666 944.283 720.962 938.605 717.161 934.04C713.361 929.475 707.905 927.751 704.974 930.19C702.044 932.629 702.749 938.308 706.548 942.873C710.349 947.437 715.805 949.16 718.735 946.723ZM742.384 927.099C746.921 925.883 749.064 919.166 747.17 912.097C745.276 905.028 740.062 900.282 735.525 901.498C730.988 902.713 728.846 909.43 730.74 916.499C732.634 923.568 737.847 928.314 742.384 927.099ZM757.231 916.187C753.472 915.539 749.61 919.76 748.601 925.614C747.593 931.469 749.822 936.738 753.581 937.386C757.339 938.032 761.201 933.811 762.21 927.958C763.219 922.105 760.989 916.834 757.231 916.187Z" fill="#F1CDB3"/>
</g>
<defs>
<clipPath id="clip0_5520_320">
<rect width="62" height="62" fill="white" transform="translate(189.08 472.033) rotate(15)"/>
</clipPath>
<clipPath id="clip1_5520_320">
<rect width="62" height="62" fill="white" transform="translate(882.38 84.4265) rotate(-15)"/>
</clipPath>
<clipPath id="clip2_5520_320">
<rect width="62" height="62" fill="white" transform="translate(696.033 912.08) rotate(-15)"/>
</clipPath>
</defs>
</svg>
