<svg width="28" height="28" viewBox="0 0 28 28" fill="none" xmlns="http://www.w3.org/2000/svg">
<g clip-path="url(#clip0_5404_441)">
<path d="M27.5747 6.50391C27.1279 5.22911 26.3431 4.07911 25.3053 3.17825C24.2664 2.27655 23.0169 1.66181 21.6919 1.40053C21.1926 1.30208 20.6793 1.25217 20.1662 1.25217C18.6691 1.25217 17.2131 1.6755 15.9556 2.47643C15.1985 2.95859 14.5335 3.56333 13.9857 4.26261C13.4381 3.56467 12.7735 2.96108 12.0173 2.47986C10.7604 1.6801 9.30538 1.25737 7.80943 1.25737C7.80935 1.25737 7.80946 1.25737 7.8094 1.25737C6.56293 1.25737 5.31191 1.56524 4.19194 2.14763C3.07279 2.72959 2.10217 3.57631 1.38512 4.59626C0.650393 5.64129 0.202848 6.81147 0.0548855 8.07426C-0.0746671 9.18017 0.0253845 10.3674 0.352325 11.6028C0.999973 14.0502 2.43349 16.2826 3.52202 17.7243C5.88881 20.8591 9.14309 23.7044 13.4708 26.4231L13.9878 26.7479L14.5048 26.4231C19.8281 23.0791 23.5436 19.5484 25.8638 15.6295C27.1981 13.3756 27.8932 11.3677 27.9889 9.49108C28.0422 8.44519 27.9029 7.44016 27.5747 6.50391ZM13.9879 24.4483C10.1215 21.9585 7.20155 19.3718 5.07336 16.553C4.0898 15.2503 2.79839 13.2478 2.23149 11.1056C1.96722 10.1069 1.88446 9.16311 1.98554 8.30046C2.09548 7.36215 2.42845 6.49204 2.97528 5.71427C3.51396 4.94807 4.24479 4.31112 5.08871 3.87229C5.93295 3.43329 6.87375 3.20126 7.80943 3.20126C8.93507 3.20126 10.0293 3.51894 10.9737 4.1199C11.8943 4.70569 12.6344 5.53203 13.1139 6.5096L13.9875 8.29029L14.8595 6.50885C15.3385 5.53012 16.0786 4.70269 16.9998 4.11605C17.9448 3.51419 19.0396 3.19608 20.1662 3.19608C20.5534 3.19608 20.9401 3.23365 21.3158 3.30771C22.3089 3.50353 23.2478 3.9664 24.0311 4.64629C24.8141 5.3259 25.4051 6.1906 25.7403 7.1469C25.9846 7.84397 26.088 8.59939 26.0476 9.39211C25.9683 10.9466 25.361 12.6629 24.1911 14.6392C22.1068 18.1597 18.7656 21.3727 13.9879 24.4483Z" fill="#F1B3B3"/>
</g>
<defs>
<clipPath id="clip0_5404_441">
<rect width="28" height="28" fill="white"/>
</clipPath>
</defs>
</svg>
