<svg viewBox="0 -26 512 512" xmlns="http://www.w3.org/2000/svg"><path d="m364.519531 0c-41.480469 0-80.777343 17.507812-108.519531 47.628906-27.742188-30.121094-67.039062-47.628906-108.519531-47.628906-81.320313 0-147.480469 66.15625-147.480469 147.476562 0 44.027344 13.425781 87.996094 39.90625 130.6875 20.785156 33.507813 49.632812 66.300782 85.746094 97.46875 60.976562 52.625 121.101562 82.261719 123.632812 83.496094.007813.003906.015625.007813.023438.011719 2.15625 1.046875 4.433594 1.542969 6.679687 1.542969.953125 0 1.902344-.089844 2.835938-.265625 1.335937-.25 2.644531-.679688 3.890625-1.289063 2.527344-1.234375 62.65625-30.871094 123.632812-83.496094 36.113282-31.167968 64.960938-63.960937 85.742188-97.46875 26.484375-42.691406 39.910156-86.664062 39.910156-130.6875 0-81.320312-66.160156-147.476562-147.480469-147.476562zm2.34375 352.03125c-46.550781 40.277344-93.746093 66.996094-110.863281 76.125-17.125-9.128906-64.3125-35.847656-110.863281-76.125-52.253907-45.210938-114.539063-117.398438-114.539063-204.554688 0-64.445312 52.433594-116.878906 116.882813-116.878906 38.207031 0 74.085937 18.75 95.96875 50.160156 2.859375 4.105469 7.546875 6.550782 12.550781 6.550782s9.691406-2.445313 12.554688-6.550782c21.882812-31.410156 57.757812-50.160156 95.96875-50.160156 64.445312 0 116.878906 52.433594 116.878906 116.878906 0 87.15625-62.285156 159.34375-114.539063 204.554688zm0 0"></path></svg>