<svg width="222" height="60" viewBox="0 0 222 60" fill="none" xmlns="http://www.w3.org/2000/svg">
<path d="M13.02 57H9.26855V56.5493C9.59863 56.5282 9.87158 56.4858 10.0874 56.4224C10.3075 56.3589 10.4175 56.2806 10.4175 56.1875C10.4175 56.1494 10.4132 56.1029 10.4048 56.0479C10.3963 55.9928 10.3836 55.9442 10.3667 55.9019L9.61768 53.8833H6.46289C6.3444 54.1795 6.24707 54.4377 6.1709 54.6577C6.09896 54.8778 6.03337 55.0809 5.97412 55.2671C5.91911 55.4491 5.88102 55.5972 5.85986 55.7114C5.8387 55.8257 5.82812 55.9188 5.82812 55.9907C5.82812 56.16 5.96143 56.2912 6.22803 56.3843C6.49463 56.4774 6.79508 56.5324 7.12939 56.5493V57H3.73975V56.5493C3.84977 56.5409 3.9873 56.5176 4.15234 56.4795C4.31738 56.4372 4.4528 56.3822 4.55859 56.3145C4.72786 56.2002 4.85905 56.0817 4.95215 55.959C5.04525 55.832 5.13623 55.6585 5.2251 55.4385C5.6779 54.3086 6.17725 53.0391 6.72314 51.6299C7.26904 50.2207 7.7557 48.966 8.18311 47.8657H8.69092L11.6934 55.6353C11.7568 55.8003 11.8288 55.9336 11.9092 56.0352C11.9896 56.1367 12.1017 56.2362 12.2456 56.3335C12.3429 56.3927 12.4699 56.4435 12.6265 56.4858C12.783 56.5239 12.9142 56.5451 13.02 56.5493V57ZM9.38916 53.3184L8.02441 49.8271L6.68506 53.3184H9.38916ZM17.6462 57H14.4914V56.5811C14.5887 56.5726 14.6882 56.5641 14.7897 56.5557C14.8955 56.5472 14.9865 56.5303 15.0627 56.5049C15.1812 56.4668 15.2679 56.4012 15.3229 56.3081C15.3822 56.2108 15.4118 56.0859 15.4118 55.9336V51.8711C15.4118 51.7314 15.3822 51.6151 15.3229 51.522C15.2637 51.4246 15.1748 51.3506 15.0563 51.2998C14.9463 51.249 14.8321 51.2152 14.7136 51.1982C14.5951 51.1813 14.4935 51.1686 14.4089 51.1602V50.7412H19.6267V52.8169H19.2331C19.2035 52.7238 19.1506 52.5884 19.0744 52.4106C18.9982 52.2329 18.9115 52.0658 18.8142 51.9092C18.7168 51.7399 18.6089 51.5939 18.4904 51.4712C18.3762 51.3442 18.2556 51.2723 18.1286 51.2554C18.0101 51.2427 17.8662 51.2342 17.697 51.23C17.5277 51.2215 17.3838 51.2173 17.2653 51.2173H16.5925V55.8701C16.5925 56.014 16.6221 56.1325 16.6813 56.2256C16.7406 56.3187 16.8295 56.3906 16.9479 56.4414C17.041 56.4837 17.1511 56.5155 17.278 56.5366C17.4092 56.5578 17.5319 56.5726 17.6462 56.5811V57ZM27.2235 51.4839C27.4732 51.7801 27.6658 52.125 27.8012 52.5186C27.9408 52.9079 28.0106 53.3543 28.0106 53.8579C28.0106 54.353 27.9281 54.8058 27.7631 55.2163C27.598 55.6226 27.3801 55.9696 27.1093 56.2573C26.8257 56.5493 26.5105 56.7736 26.1635 56.9302C25.8165 57.0868 25.4483 57.165 25.059 57.165C24.6824 57.165 24.3734 57.1227 24.1322 57.0381C23.891 56.9535 23.6942 56.854 23.5419 56.7397H23.4911V58.6187C23.4911 58.771 23.5207 58.8979 23.58 58.9995C23.6392 59.1011 23.7302 59.1751 23.8529 59.2217C23.9545 59.2598 24.0984 59.2957 24.2846 59.3296C24.475 59.3677 24.6316 59.3888 24.7543 59.3931V59.8184H21.2567V59.3931C21.3879 59.3846 21.5149 59.374 21.6376 59.3613C21.7603 59.3486 21.8703 59.3275 21.9677 59.2979C22.0946 59.2555 22.1835 59.1815 22.2343 59.0757C22.2851 58.9699 22.3104 58.8451 22.3104 58.7012V52.0425C22.3104 51.9155 22.2787 51.7928 22.2152 51.6743C22.1518 51.5558 22.0692 51.4606 21.9677 51.3887C21.8915 51.3379 21.7857 51.2998 21.6503 51.2744C21.5149 51.2448 21.3837 51.2257 21.2567 51.2173V50.8047L23.3896 50.665L23.4784 50.7412V51.4458L23.5292 51.4585C23.7493 51.2046 24.0222 50.993 24.348 50.8237C24.6739 50.6545 24.9976 50.5698 25.3192 50.5698C25.7086 50.5698 26.064 50.6523 26.3856 50.8174C26.7115 50.9824 26.9908 51.2046 27.2235 51.4839ZM26.1889 55.9844C26.3581 55.722 26.483 55.4173 26.5634 55.0703C26.6438 54.7233 26.684 54.3361 26.684 53.9087C26.684 53.5955 26.6501 53.276 26.5824 52.9502C26.5147 52.6243 26.4089 52.3408 26.265 52.0996C26.1212 51.8542 25.9328 51.6553 25.7001 51.5029C25.4674 51.3506 25.1881 51.2744 24.8622 51.2744C24.5491 51.2744 24.2825 51.3442 24.0624 51.4839C23.8424 51.6193 23.6519 51.7822 23.4911 51.9727V55.6733C23.5292 55.7876 23.5906 55.9061 23.6752 56.0288C23.7641 56.1515 23.8614 56.2573 23.9672 56.3462C24.0984 56.452 24.2401 56.5387 24.3925 56.6064C24.5448 56.6699 24.731 56.7017 24.9511 56.7017C25.1881 56.7017 25.4166 56.6403 25.6366 56.5176C25.8567 56.3906 26.0408 56.2129 26.1889 55.9844ZM35.7916 55.5273C35.5292 56.0267 35.178 56.4245 34.7379 56.7207C34.2978 57.0169 33.7921 57.165 33.2208 57.165C32.7172 57.165 32.275 57.0762 31.8941 56.8984C31.5175 56.7207 31.2065 56.4795 30.961 56.1748C30.7156 55.8701 30.5315 55.5146 30.4088 55.1084C30.2903 54.7021 30.2311 54.2726 30.2311 53.8198C30.2311 53.4136 30.2945 53.0158 30.4215 52.6265C30.5527 52.2329 30.7431 51.8796 30.9928 51.5664C31.234 51.266 31.5323 51.0247 31.8878 50.8428C32.2475 50.6566 32.6495 50.5635 33.0938 50.5635C33.5509 50.5635 33.9423 50.6354 34.2682 50.7793C34.594 50.9232 34.8585 51.12 35.0616 51.3696C35.2563 51.6066 35.4002 51.8859 35.4933 52.2075C35.5906 52.5291 35.6393 52.8783 35.6393 53.2549V53.6738H31.4942C31.4942 54.0843 31.5323 54.4567 31.6085 54.791C31.6889 55.1253 31.8137 55.4194 31.983 55.6733C32.148 55.9188 32.3639 56.1134 32.6305 56.2573C32.8971 56.397 33.2145 56.4668 33.5826 56.4668C33.9592 56.4668 34.283 56.38 34.5538 56.2065C34.8289 56.0288 35.0934 55.7114 35.3473 55.2544L35.7916 55.5273ZM34.3888 53.1406C34.3888 52.9036 34.3676 52.6497 34.3253 52.3789C34.2872 52.1081 34.2237 51.8817 34.1349 51.6997C34.0375 51.505 33.9042 51.3464 33.735 51.2236C33.5657 51.1009 33.3478 51.0396 33.0812 51.0396C32.6368 51.0396 32.2665 51.2257 31.9703 51.5981C31.6783 51.9663 31.5196 52.4805 31.4942 53.1406H34.3888ZM40.9827 57H37.8279V56.5811C37.9253 56.5726 38.0247 56.5641 38.1263 56.5557C38.2321 56.5472 38.323 56.5303 38.3992 56.5049C38.5177 56.4668 38.6045 56.4012 38.6595 56.3081C38.7187 56.2108 38.7483 56.0859 38.7483 55.9336V51.8711C38.7483 51.7314 38.7187 51.6151 38.6595 51.522C38.6002 51.4246 38.5114 51.3506 38.3929 51.2998C38.2828 51.249 38.1686 51.2152 38.0501 51.1982C37.9316 51.1813 37.83 51.1686 37.7454 51.1602V50.7412H42.9632V52.8169H42.5696C42.54 52.7238 42.4871 52.5884 42.4109 52.4106C42.3348 52.2329 42.248 52.0658 42.1507 51.9092C42.0534 51.7399 41.9454 51.5939 41.827 51.4712C41.7127 51.3442 41.5921 51.2723 41.4651 51.2554C41.3466 51.2427 41.2028 51.2342 41.0335 51.23C40.8642 51.2215 40.7203 51.2173 40.6019 51.2173H39.929V55.8701C39.929 56.014 39.9586 56.1325 40.0179 56.2256C40.0771 56.3187 40.166 56.3906 40.2845 56.4414C40.3776 56.4837 40.4876 56.5155 40.6146 56.5366C40.7457 56.5578 40.8685 56.5726 40.9827 56.5811V57ZM50.7695 56.8857C50.5706 56.9577 50.395 57.0148 50.2427 57.0571C50.0946 57.1037 49.9253 57.127 49.7349 57.127C49.4048 57.127 49.1403 57.0508 48.9414 56.8984C48.7467 56.7419 48.6219 56.5155 48.5669 56.2192H48.5288C48.2537 56.5239 47.9575 56.7567 47.6401 56.9175C47.327 57.0783 46.9482 57.1587 46.5039 57.1587C46.0342 57.1587 45.647 57.0148 45.3423 56.7271C45.0418 56.4393 44.8916 56.0627 44.8916 55.5972C44.8916 55.356 44.9255 55.1401 44.9932 54.9497C45.0609 54.7593 45.1624 54.5879 45.2979 54.4355C45.4036 54.3086 45.5433 54.1965 45.7168 54.0991C45.8903 53.9976 46.0532 53.9172 46.2056 53.8579C46.396 53.786 46.7811 53.6527 47.3608 53.458C47.9448 53.2633 48.3384 53.111 48.5415 53.001V52.3726C48.5415 52.3175 48.5288 52.2118 48.5034 52.0552C48.4823 51.8986 48.4336 51.7505 48.3574 51.6108C48.2728 51.4543 48.1522 51.3188 47.9956 51.2046C47.8433 51.0861 47.6253 51.0269 47.3418 51.0269C47.1471 51.0269 46.9652 51.0607 46.7959 51.1284C46.6309 51.1919 46.5145 51.2596 46.4468 51.3315C46.4468 51.4162 46.4658 51.541 46.5039 51.7061C46.5462 51.8711 46.5674 52.0234 46.5674 52.1631C46.5674 52.3112 46.4997 52.4466 46.3643 52.5693C46.2331 52.6921 46.049 52.7534 45.812 52.7534C45.6004 52.7534 45.4438 52.6794 45.3423 52.5312C45.245 52.3789 45.1963 52.2096 45.1963 52.0234C45.1963 51.8288 45.264 51.6426 45.3994 51.4648C45.5391 51.2871 45.7189 51.1284 45.939 50.9888C46.1294 50.8703 46.36 50.7708 46.6309 50.6904C46.9017 50.6058 47.1662 50.5635 47.4243 50.5635C47.7798 50.5635 48.0887 50.5889 48.3511 50.6396C48.6177 50.6862 48.8589 50.7899 49.0747 50.9507C49.2905 51.1073 49.4535 51.321 49.5635 51.5918C49.6777 51.8584 49.7349 52.2033 49.7349 52.6265C49.7349 53.2316 49.7285 53.769 49.7158 54.2388C49.7031 54.7043 49.6968 55.2142 49.6968 55.7686C49.6968 55.9336 49.7243 56.0648 49.7793 56.1621C49.8385 56.2594 49.9274 56.342 50.0459 56.4097C50.1094 56.4478 50.2088 56.4689 50.3442 56.4731C50.4839 56.4774 50.6257 56.4795 50.7695 56.4795V56.8857ZM48.5542 53.5342C48.1945 53.64 47.8792 53.7437 47.6084 53.8452C47.3376 53.9468 47.0858 54.0737 46.853 54.2261C46.6414 54.37 46.4743 54.5413 46.3516 54.7402C46.2288 54.9349 46.1675 55.1676 46.1675 55.4385C46.1675 55.7897 46.2585 56.0479 46.4404 56.2129C46.6266 56.3779 46.8615 56.4604 47.145 56.4604C47.4455 56.4604 47.71 56.3885 47.9385 56.2446C48.167 56.0965 48.3595 55.923 48.5161 55.7241L48.5542 53.5342ZM58.2141 52.7471H57.8269C57.7888 52.6286 57.7316 52.4889 57.6555 52.3281C57.5835 52.1673 57.5031 52.015 57.4143 51.8711C57.3212 51.7145 57.2154 51.577 57.0969 51.4585C56.9826 51.3358 56.862 51.266 56.7351 51.249C56.6039 51.2363 56.4579 51.2279 56.2971 51.2236C56.1363 51.2152 55.9987 51.2109 55.8845 51.2109V55.8701C55.8845 56.014 55.9141 56.1325 55.9733 56.2256C56.0326 56.3187 56.1215 56.3906 56.2399 56.4414C56.333 56.4837 56.4388 56.5155 56.5573 56.5366C56.6758 56.5578 56.7922 56.5726 56.9064 56.5811V57H53.7199V56.5811C53.8173 56.5726 53.9273 56.5641 54.05 56.5557C54.177 56.5472 54.2785 56.5303 54.3547 56.5049C54.4732 56.4668 54.5599 56.4012 54.6149 56.3081C54.6742 56.2108 54.7038 56.0859 54.7038 55.9336V51.2109C54.5684 51.2152 54.416 51.2215 54.2468 51.23C54.0775 51.2342 53.9442 51.2406 53.8469 51.249C53.7368 51.2575 53.6184 51.3273 53.4914 51.4585C53.3687 51.5897 53.2608 51.7272 53.1677 51.8711C53.0788 52.015 52.9963 52.1758 52.9201 52.3535C52.8439 52.527 52.791 52.6582 52.7614 52.7471H52.3742V50.7412H58.2141V52.7471ZM66.2108 53.8071C66.2108 54.2472 66.141 54.681 66.0014 55.1084C65.8617 55.5316 65.6628 55.8913 65.4047 56.1875C65.1127 56.526 64.7742 56.7778 64.3891 56.9429C64.004 57.1079 63.5723 57.1904 63.0941 57.1904C62.6964 57.1904 62.3176 57.1164 61.9579 56.9683C61.5982 56.8159 61.2787 56.5959 60.9994 56.3081C60.7243 56.0246 60.5043 55.6797 60.3393 55.2734C60.1784 54.863 60.098 54.4038 60.098 53.896C60.098 52.9185 60.3816 52.1187 60.9486 51.4966C61.5199 50.8745 62.2668 50.5635 63.1894 50.5635C64.0653 50.5635 64.7868 50.8597 65.3539 51.4521C65.9252 52.0404 66.2108 52.8254 66.2108 53.8071ZM64.8969 53.8198C64.8969 53.5024 64.8651 53.1681 64.8017 52.8169C64.7382 52.4614 64.643 52.161 64.516 51.9155C64.3806 51.6532 64.2029 51.4437 63.9828 51.2871C63.7628 51.1263 63.494 51.0459 63.1767 51.0459C62.8508 51.0459 62.5715 51.1263 62.3388 51.2871C62.1103 51.4479 61.9241 51.668 61.7802 51.9473C61.6448 52.2054 61.5495 52.4995 61.4945 52.8296C61.4395 53.1597 61.412 53.4792 61.412 53.7881C61.412 54.1943 61.4437 54.571 61.5072 54.918C61.5749 55.2607 61.6807 55.5675 61.8246 55.8384C61.9685 56.1092 62.1483 56.3229 62.3642 56.4795C62.5842 56.6318 62.855 56.708 63.1767 56.708C63.7056 56.708 64.1246 56.452 64.4335 55.9399C64.7424 55.4279 64.8969 54.7212 64.8969 53.8198ZM74.1378 51.4839C74.3875 51.7801 74.58 52.125 74.7154 52.5186C74.8551 52.9079 74.9249 53.3543 74.9249 53.8579C74.9249 54.353 74.8424 54.8058 74.6773 55.2163C74.5123 55.6226 74.2944 55.9696 74.0235 56.2573C73.74 56.5493 73.4247 56.7736 73.0777 56.9302C72.7307 57.0868 72.3626 57.165 71.9732 57.165C71.5966 57.165 71.2877 57.1227 71.0465 57.0381C70.8053 56.9535 70.6085 56.854 70.4562 56.7397H70.4054V58.6187C70.4054 58.771 70.435 58.8979 70.4942 58.9995C70.5535 59.1011 70.6445 59.1751 70.7672 59.2217C70.8688 59.2598 71.0126 59.2957 71.1988 59.3296C71.3893 59.3677 71.5458 59.3888 71.6686 59.3931V59.8184H68.171V59.3931C68.3022 59.3846 68.4291 59.374 68.5519 59.3613C68.6746 59.3486 68.7846 59.3275 68.8819 59.2979C69.0089 59.2555 69.0978 59.1815 69.1485 59.0757C69.1993 58.9699 69.2247 58.8451 69.2247 58.7012V52.0425C69.2247 51.9155 69.193 51.7928 69.1295 51.6743C69.066 51.5558 68.9835 51.4606 68.8819 51.3887C68.8058 51.3379 68.7 51.2998 68.5646 51.2744C68.4291 51.2448 68.298 51.2257 68.171 51.2173V50.8047L70.3038 50.665L70.3927 50.7412V51.4458L70.4435 51.4585C70.6635 51.2046 70.9365 50.993 71.2623 50.8237C71.5882 50.6545 71.9119 50.5698 72.2335 50.5698C72.6228 50.5698 72.9783 50.6523 73.2999 50.8174C73.6258 50.9824 73.905 51.2046 74.1378 51.4839ZM73.1031 55.9844C73.2724 55.722 73.3972 55.4173 73.4776 55.0703C73.558 54.7233 73.5982 54.3361 73.5982 53.9087C73.5982 53.5955 73.5644 53.276 73.4967 52.9502C73.429 52.6243 73.3232 52.3408 73.1793 52.0996C73.0354 51.8542 72.8471 51.6553 72.6144 51.5029C72.3816 51.3506 72.1023 51.2744 71.7765 51.2744C71.4633 51.2744 71.1967 51.3442 70.9767 51.4839C70.7566 51.6193 70.5662 51.7822 70.4054 51.9727V55.6733C70.4435 55.7876 70.5048 55.9061 70.5895 56.0288C70.6783 56.1515 70.7757 56.2573 70.8814 56.3462C71.0126 56.452 71.1544 56.5387 71.3067 56.6064C71.4591 56.6699 71.6453 56.7017 71.8653 56.7017C72.1023 56.7017 72.3308 56.6403 72.5509 56.5176C72.7709 56.3906 72.955 56.2129 73.1031 55.9844ZM88.5 57H85.4404V56.5811C85.5378 56.5726 85.6372 56.5641 85.7388 56.5557C85.8403 56.5472 85.9292 56.5303 86.0054 56.5049C86.1239 56.4668 86.2148 56.4012 86.2783 56.3081C86.3418 56.2108 86.3735 56.0859 86.3735 55.9336V51.2617H83.6948V55.8701C83.6948 56.014 83.7244 56.1325 83.7837 56.2256C83.8429 56.3187 83.9318 56.3906 84.0503 56.4414C84.1392 56.4837 84.2344 56.5155 84.3359 56.5366C84.4375 56.5578 84.5433 56.5726 84.6533 56.5811V57H81.5938V56.5811C81.6911 56.5726 81.7905 56.5641 81.8921 56.5557C81.9979 56.5472 82.0889 56.5303 82.165 56.5049C82.2835 56.4668 82.3703 56.4012 82.4253 56.3081C82.4845 56.2108 82.5142 56.0859 82.5142 55.9336V51.8711C82.5142 51.7314 82.4845 51.6151 82.4253 51.522C82.366 51.4246 82.2772 51.3506 82.1587 51.2998C82.0487 51.249 81.9408 51.2152 81.835 51.1982C81.7334 51.1813 81.6382 51.1686 81.5493 51.1602V50.7412H88.4746V51.1602C88.3519 51.1686 88.244 51.1792 88.1509 51.1919C88.062 51.2046 87.9795 51.2194 87.9033 51.2363C87.7848 51.2702 87.696 51.3379 87.6367 51.4395C87.5817 51.5368 87.5542 51.6595 87.5542 51.8076V55.8701C87.5542 56.0182 87.5796 56.1388 87.6304 56.2319C87.6812 56.3208 87.7679 56.3906 87.8906 56.4414C87.9795 56.4837 88.0747 56.5155 88.1763 56.5366C88.2821 56.5578 88.39 56.5726 88.5 56.5811V57ZM96.4206 51.4839C96.6703 51.7801 96.8628 52.125 96.9982 52.5186C97.1379 52.9079 97.2077 53.3543 97.2077 53.8579C97.2077 54.353 97.1252 54.8058 96.9602 55.2163C96.7951 55.6226 96.5772 55.9696 96.3064 56.2573C96.0228 56.5493 95.7076 56.7736 95.3605 56.9302C95.0135 57.0868 94.6454 57.165 94.2561 57.165C93.8794 57.165 93.5705 57.1227 93.3293 57.0381C93.0881 56.9535 92.8913 56.854 92.739 56.7397H92.6882V58.6187C92.6882 58.771 92.7178 58.8979 92.7771 58.9995C92.8363 59.1011 92.9273 59.1751 93.05 59.2217C93.1516 59.2598 93.2954 59.2957 93.4816 59.3296C93.6721 59.3677 93.8286 59.3888 93.9514 59.3931V59.8184H90.4538V59.3931C90.585 59.3846 90.7119 59.374 90.8347 59.3613C90.9574 59.3486 91.0674 59.3275 91.1647 59.2979C91.2917 59.2555 91.3806 59.1815 91.4314 59.0757C91.4821 58.9699 91.5075 58.8451 91.5075 58.7012V52.0425C91.5075 51.9155 91.4758 51.7928 91.4123 51.6743C91.3488 51.5558 91.2663 51.4606 91.1647 51.3887C91.0886 51.3379 90.9828 51.2998 90.8474 51.2744C90.7119 51.2448 90.5808 51.2257 90.4538 51.2173V50.8047L92.5866 50.665L92.6755 50.7412V51.4458L92.7263 51.4585C92.9463 51.2046 93.2193 50.993 93.5451 50.8237C93.871 50.6545 94.1947 50.5698 94.5163 50.5698C94.9056 50.5698 95.2611 50.6523 95.5827 50.8174C95.9086 50.9824 96.1879 51.2046 96.4206 51.4839ZM95.3859 55.9844C95.5552 55.722 95.68 55.4173 95.7605 55.0703C95.8409 54.7233 95.8811 54.3361 95.8811 53.9087C95.8811 53.5955 95.8472 53.276 95.7795 52.9502C95.7118 52.6243 95.606 52.3408 95.4621 52.0996C95.3182 51.8542 95.1299 51.6553 94.8972 51.5029C94.6644 51.3506 94.3851 51.2744 94.0593 51.2744C93.7461 51.2744 93.4795 51.3442 93.2595 51.4839C93.0394 51.6193 92.849 51.7822 92.6882 51.9727V55.6733C92.7263 55.7876 92.7876 55.9061 92.8723 56.0288C92.9611 56.1515 93.0585 56.2573 93.1643 56.3462C93.2954 56.452 93.4372 56.5387 93.5896 56.6064C93.7419 56.6699 93.9281 56.7017 94.1481 56.7017C94.3851 56.7017 94.6136 56.6403 94.8337 56.5176C95.0537 56.3906 95.2378 56.2129 95.3859 55.9844ZM106.487 57H103.446V56.5811C103.544 56.5726 103.643 56.5641 103.745 56.5557C103.85 56.5472 103.941 56.5303 104.017 56.5049C104.136 56.4668 104.227 56.4012 104.29 56.3081C104.354 56.2108 104.386 56.0859 104.386 55.9336V52.6455L101.504 55.7622V55.8701C101.504 56.014 101.533 56.1325 101.593 56.2256C101.652 56.3187 101.741 56.3906 101.859 56.4414C101.952 56.4837 102.05 56.5155 102.151 56.5366C102.257 56.5578 102.367 56.5726 102.481 56.5811V57H99.4408V56.5811C99.5381 56.5726 99.6376 56.5641 99.7392 56.5557C99.845 56.5472 99.9359 56.5303 100.012 56.5049C100.131 56.4668 100.217 56.4012 100.272 56.3081C100.332 56.2108 100.361 56.0859 100.361 55.9336V51.8711C100.361 51.7314 100.332 51.6151 100.272 51.522C100.213 51.4246 100.124 51.3506 100.006 51.2998C99.8957 51.249 99.7878 51.2152 99.682 51.1982C99.5805 51.1813 99.4853 51.1686 99.3964 51.1602V50.7412H102.437V51.1602C102.314 51.1686 102.206 51.1792 102.113 51.1919C102.024 51.2046 101.942 51.2194 101.866 51.2363C101.747 51.2702 101.658 51.3379 101.599 51.4395C101.544 51.5368 101.517 51.6595 101.517 51.8076V55.0449L104.398 51.9219C104.398 51.7357 104.369 51.5981 104.309 51.5093C104.25 51.4204 104.161 51.3506 104.043 51.2998C103.933 51.249 103.823 51.2152 103.713 51.1982C103.607 51.1813 103.51 51.1686 103.421 51.1602V50.7412H106.461V51.1602C106.339 51.1686 106.231 51.1792 106.138 51.1919C106.049 51.2046 105.966 51.2194 105.89 51.2363C105.772 51.2702 105.683 51.3379 105.623 51.4395C105.568 51.5368 105.541 51.6595 105.541 51.8076V55.8701C105.541 56.0182 105.566 56.1388 105.617 56.2319C105.668 56.3208 105.755 56.3906 105.877 56.4414C105.966 56.4837 106.061 56.5155 106.163 56.5366C106.269 56.5578 106.377 56.5726 106.487 56.5811V57ZM116.343 55.8574C116.475 55.5908 116.572 55.2882 116.635 54.9497C116.699 54.6069 116.731 54.2303 116.731 53.8198C116.731 53.4728 116.705 53.1364 116.654 52.8105C116.604 52.4805 116.513 52.1821 116.381 51.9155C116.254 51.6532 116.083 51.4437 115.867 51.2871C115.656 51.1263 115.391 51.0459 115.074 51.0459C114.731 51.0459 114.45 51.1305 114.23 51.2998C114.01 51.4691 113.836 51.6849 113.709 51.9473C113.582 52.2012 113.493 52.491 113.442 52.8169C113.392 53.1427 113.366 53.4665 113.366 53.7881C113.366 54.1816 113.396 54.5562 113.455 54.9116C113.519 55.2629 113.618 55.5718 113.754 55.8384C113.889 56.1092 114.062 56.3229 114.274 56.4795C114.486 56.6318 114.752 56.708 115.074 56.708C115.362 56.708 115.611 56.6318 115.823 56.4795C116.039 56.3229 116.212 56.1156 116.343 55.8574ZM112.966 56.3208C112.704 56.033 112.499 55.6924 112.351 55.2988C112.203 54.901 112.124 54.4482 112.116 53.9404H110.789V55.8701C110.789 56.014 110.819 56.1325 110.878 56.2256C110.937 56.3187 111.026 56.3906 111.145 56.4414C111.233 56.4837 111.329 56.5155 111.43 56.5366C111.536 56.5578 111.644 56.5726 111.754 56.5811V57H108.701V56.5811C108.798 56.5726 108.898 56.5641 108.999 56.5557C109.105 56.5472 109.196 56.5303 109.272 56.5049C109.391 56.4668 109.477 56.4012 109.532 56.3081C109.592 56.2108 109.621 56.0859 109.621 55.9336V51.8711C109.621 51.7314 109.592 51.6151 109.532 51.522C109.473 51.4246 109.384 51.3506 109.266 51.2998C109.156 51.249 109.048 51.2152 108.942 51.1982C108.84 51.1813 108.745 51.1686 108.656 51.1602V50.7412H111.71V51.1602C111.587 51.1686 111.479 51.1792 111.386 51.1919C111.297 51.2046 111.214 51.2194 111.138 51.2363C111.02 51.2702 110.931 51.3379 110.872 51.4395C110.817 51.5368 110.789 51.6595 110.789 51.8076V53.4199H112.135C112.215 52.5736 112.516 51.8859 113.036 51.3569C113.561 50.828 114.244 50.5635 115.087 50.5635C115.556 50.5635 115.973 50.6481 116.337 50.8174C116.705 50.9867 117.012 51.2109 117.257 51.4902C117.516 51.7822 117.71 52.1229 117.841 52.5122C117.977 52.8973 118.045 53.3289 118.045 53.8071C118.045 54.2557 117.977 54.6895 117.841 55.1084C117.71 55.5273 117.518 55.887 117.264 56.1875C116.997 56.5007 116.68 56.7461 116.312 56.9238C115.943 57.1016 115.503 57.1904 114.991 57.1904C114.598 57.1904 114.227 57.1164 113.88 56.9683C113.533 56.8159 113.229 56.6001 112.966 56.3208ZM125.781 52.7471H125.394C125.356 52.6286 125.299 52.4889 125.222 52.3281C125.151 52.1673 125.07 52.015 124.981 51.8711C124.888 51.7145 124.782 51.577 124.664 51.4585C124.55 51.3358 124.429 51.266 124.302 51.249C124.171 51.2363 124.025 51.2279 123.864 51.2236C123.703 51.2152 123.566 51.2109 123.451 51.2109V55.8701C123.451 56.014 123.481 56.1325 123.54 56.2256C123.6 56.3187 123.688 56.3906 123.807 56.4414C123.9 56.4837 124.006 56.5155 124.124 56.5366C124.243 56.5578 124.359 56.5726 124.473 56.5811V57H121.287V56.5811C121.384 56.5726 121.494 56.5641 121.617 56.5557C121.744 56.5472 121.846 56.5303 121.922 56.5049C122.04 56.4668 122.127 56.4012 122.182 56.3081C122.241 56.2108 122.271 56.0859 122.271 55.9336V51.2109C122.135 51.2152 121.983 51.2215 121.814 51.23C121.644 51.2342 121.511 51.2406 121.414 51.249C121.304 51.2575 121.185 51.3273 121.058 51.4585C120.936 51.5897 120.828 51.7272 120.735 51.8711C120.646 52.015 120.563 52.1758 120.487 52.3535C120.411 52.527 120.358 52.6582 120.328 52.7471H119.941V50.7412H125.781V52.7471ZM133.778 53.8071C133.778 54.2472 133.708 54.681 133.568 55.1084C133.429 55.5316 133.23 55.8913 132.972 56.1875C132.68 56.526 132.341 56.7778 131.956 56.9429C131.571 57.1079 131.139 57.1904 130.661 57.1904C130.263 57.1904 129.885 57.1164 129.525 56.9683C129.165 56.8159 128.846 56.5959 128.566 56.3081C128.291 56.0246 128.071 55.6797 127.906 55.2734C127.745 54.863 127.665 54.4038 127.665 53.896C127.665 52.9185 127.949 52.1187 128.516 51.4966C129.087 50.8745 129.834 50.5635 130.756 50.5635C131.632 50.5635 132.354 50.8597 132.921 51.4521C133.492 52.0404 133.778 52.8254 133.778 53.8071ZM132.464 53.8198C132.464 53.5024 132.432 53.1681 132.369 52.8169C132.305 52.4614 132.21 52.161 132.083 51.9155C131.948 51.6532 131.77 51.4437 131.55 51.2871C131.33 51.1263 131.061 51.0459 130.744 51.0459C130.418 51.0459 130.139 51.1263 129.906 51.2871C129.677 51.4479 129.491 51.668 129.347 51.9473C129.212 52.2054 129.117 52.4995 129.062 52.8296C129.007 53.1597 128.979 53.4792 128.979 53.7881C128.979 54.1943 129.011 54.571 129.074 54.918C129.142 55.2607 129.248 55.5675 129.392 55.8384C129.535 56.1092 129.715 56.3229 129.931 56.4795C130.151 56.6318 130.422 56.708 130.744 56.708C131.273 56.708 131.692 56.452 132 55.9399C132.309 55.4279 132.464 54.7212 132.464 53.8198ZM140.511 55.1592C140.511 54.7868 140.374 54.4927 140.099 54.2769C139.824 54.061 139.43 53.9531 138.918 53.9531C138.694 53.9531 138.516 53.9574 138.385 53.9658C138.258 53.9743 138.159 53.9785 138.087 53.9785V56.0479C138.087 56.2129 138.156 56.342 138.296 56.4351C138.436 56.5239 138.649 56.5684 138.937 56.5684C139.242 56.5684 139.5 56.5282 139.712 56.4478C139.923 56.3674 140.088 56.2573 140.207 56.1177C140.321 55.9823 140.399 55.8341 140.442 55.6733C140.488 55.5125 140.511 55.3411 140.511 55.1592ZM141.781 55.2544C141.781 55.5633 141.711 55.8299 141.571 56.0542C141.432 56.2785 141.239 56.4626 140.994 56.6064C140.77 56.7376 140.514 56.8371 140.226 56.9048C139.938 56.9683 139.631 57 139.305 57H135.998V56.5811C136.096 56.5726 136.195 56.5641 136.297 56.5557C136.402 56.5472 136.493 56.5303 136.57 56.5049C136.688 56.4668 136.775 56.4012 136.83 56.3081C136.889 56.2108 136.919 56.0859 136.919 55.9336V51.8711C136.919 51.7314 136.889 51.6151 136.83 51.522C136.771 51.4246 136.682 51.3506 136.563 51.2998C136.453 51.249 136.345 51.2152 136.239 51.1982C136.138 51.1813 136.043 51.1686 135.954 51.1602V50.7412C136.33 50.7412 136.796 50.7391 137.35 50.7349C137.909 50.7306 138.491 50.7285 139.096 50.7285C139.418 50.7285 139.716 50.7518 139.991 50.7983C140.27 50.8407 140.518 50.9147 140.734 51.0205C140.958 51.1305 141.131 51.2808 141.254 51.4712C141.377 51.6574 141.438 51.8838 141.438 52.1504C141.438 52.5693 141.307 52.9015 141.045 53.147C140.786 53.3882 140.446 53.5532 140.023 53.6421V53.7119C140.238 53.7415 140.45 53.7902 140.657 53.8579C140.869 53.9256 141.057 54.0187 141.222 54.1372C141.392 54.2599 141.527 54.4123 141.629 54.5942C141.73 54.772 141.781 54.992 141.781 55.2544ZM140.181 52.2012C140.181 51.9896 140.141 51.8182 140.061 51.687C139.985 51.5516 139.881 51.4458 139.75 51.3696C139.619 51.2935 139.47 51.2427 139.305 51.2173C139.145 51.1877 138.977 51.1729 138.804 51.1729C138.694 51.1729 138.571 51.1771 138.436 51.1855C138.305 51.1898 138.188 51.194 138.087 51.1982V53.4834H138.702C138.994 53.4834 139.24 53.4495 139.439 53.3818C139.638 53.3141 139.788 53.2231 139.889 53.1089C139.995 52.9989 140.069 52.8677 140.112 52.7153C140.158 52.563 140.181 52.3916 140.181 52.2012ZM152.988 55.1592C152.988 54.7868 152.851 54.4927 152.576 54.2769C152.301 54.061 151.907 53.9531 151.395 53.9531C151.171 53.9531 150.993 53.9574 150.862 53.9658C150.735 53.9743 150.636 53.9785 150.564 53.9785V56.0479C150.564 56.2129 150.633 56.342 150.773 56.4351C150.913 56.5239 151.126 56.5684 151.414 56.5684C151.719 56.5684 151.977 56.5282 152.189 56.4478C152.4 56.3674 152.565 56.2573 152.684 56.1177C152.798 55.9823 152.876 55.8341 152.919 55.6733C152.965 55.5125 152.988 55.3411 152.988 55.1592ZM154.258 55.2544C154.258 55.5633 154.188 55.8299 154.048 56.0542C153.909 56.2785 153.716 56.4626 153.471 56.6064C153.247 56.7376 152.99 56.8371 152.703 56.9048C152.415 56.9683 152.108 57 151.782 57H148.475V56.5811C148.573 56.5726 148.672 56.5641 148.774 56.5557C148.879 56.5472 148.97 56.5303 149.046 56.5049C149.165 56.4668 149.252 56.4012 149.307 56.3081C149.366 56.2108 149.396 56.0859 149.396 55.9336V51.8711C149.396 51.7314 149.366 51.6151 149.307 51.522C149.247 51.4246 149.159 51.3506 149.04 51.2998C148.93 51.249 148.822 51.2152 148.716 51.1982C148.615 51.1813 148.52 51.1686 148.431 51.1602V50.7412C148.807 50.7412 149.273 50.7391 149.827 50.7349C150.386 50.7306 150.968 50.7285 151.573 50.7285C151.894 50.7285 152.193 50.7518 152.468 50.7983C152.747 50.8407 152.995 50.9147 153.211 51.0205C153.435 51.1305 153.608 51.2808 153.731 51.4712C153.854 51.6574 153.915 51.8838 153.915 52.1504C153.915 52.5693 153.784 52.9015 153.522 53.147C153.263 53.3882 152.923 53.5532 152.5 53.6421V53.7119C152.715 53.7415 152.927 53.7902 153.134 53.8579C153.346 53.9256 153.534 54.0187 153.699 54.1372C153.869 54.2599 154.004 54.4123 154.106 54.5942C154.207 54.772 154.258 54.992 154.258 55.2544ZM152.658 52.2012C152.658 51.9896 152.618 51.8182 152.538 51.687C152.462 51.5516 152.358 51.4458 152.227 51.3696C152.095 51.2935 151.947 51.2427 151.782 51.2173C151.622 51.1877 151.454 51.1729 151.281 51.1729C151.171 51.1729 151.048 51.1771 150.913 51.1855C150.782 51.1898 150.665 51.194 150.564 51.1982V53.4834H151.179C151.471 53.4834 151.717 53.4495 151.916 53.3818C152.115 53.3141 152.265 53.2231 152.366 53.1089C152.472 52.9989 152.546 52.8677 152.588 52.7153C152.635 52.563 152.658 52.3916 152.658 52.2012ZM167.998 50.2144C167.998 50.6841 167.905 51.1009 167.719 51.4648C167.537 51.8245 167.283 52.1229 166.957 52.3599C166.635 52.5968 166.282 52.7703 165.897 52.8804C165.512 52.9904 165.104 53.0454 164.672 53.0454H163.663V55.7749C163.663 55.923 163.686 56.0542 163.732 56.1685C163.783 56.2785 163.885 56.3631 164.037 56.4224C164.113 56.452 164.247 56.4795 164.437 56.5049C164.632 56.5303 164.809 56.5451 164.97 56.5493V57H161.104V56.5493C161.206 56.5409 161.352 56.526 161.542 56.5049C161.737 56.4837 161.873 56.4562 161.949 56.4224C162.076 56.3674 162.167 56.2869 162.222 56.1812C162.281 56.0754 162.311 55.9399 162.311 55.7749V49.2749C162.311 49.1268 162.289 48.9935 162.247 48.875C162.205 48.7565 162.105 48.6676 161.949 48.6084C161.788 48.5534 161.627 48.5153 161.466 48.4941C161.31 48.4688 161.174 48.4518 161.06 48.4434V47.9927H165.173C166.011 47.9927 166.69 48.1958 167.211 48.6021C167.736 49.0041 167.998 49.5415 167.998 50.2144ZM166.068 51.7505C166.212 51.5474 166.307 51.3379 166.354 51.1221C166.401 50.902 166.424 50.7052 166.424 50.5317C166.424 50.2905 166.394 50.0451 166.335 49.7954C166.28 49.5457 166.183 49.3278 166.043 49.1416C165.895 48.9427 165.7 48.7882 165.459 48.6782C165.218 48.5682 164.917 48.5132 164.558 48.5132H163.663V52.4932H164.31C164.767 52.4932 165.137 52.4233 165.421 52.2837C165.709 52.1398 165.924 51.9621 166.068 51.7505ZM176.274 53.8071C176.274 54.2472 176.204 54.681 176.065 55.1084C175.925 55.5316 175.726 55.8913 175.468 56.1875C175.176 56.526 174.837 56.7778 174.452 56.9429C174.067 57.1079 173.636 57.1904 173.157 57.1904C172.76 57.1904 172.381 57.1164 172.021 56.9683C171.661 56.8159 171.342 56.5959 171.063 56.3081C170.788 56.0246 170.568 55.6797 170.403 55.2734C170.242 54.863 170.161 54.4038 170.161 53.896C170.161 52.9185 170.445 52.1187 171.012 51.4966C171.583 50.8745 172.33 50.5635 173.253 50.5635C174.129 50.5635 174.85 50.8597 175.417 51.4521C175.988 52.0404 176.274 52.8254 176.274 53.8071ZM174.96 53.8198C174.96 53.5024 174.928 53.1681 174.865 52.8169C174.801 52.4614 174.706 52.161 174.579 51.9155C174.444 51.6532 174.266 51.4437 174.046 51.2871C173.826 51.1263 173.557 51.0459 173.24 51.0459C172.914 51.0459 172.635 51.1263 172.402 51.2871C172.174 51.4479 171.987 51.668 171.843 51.9473C171.708 52.2054 171.613 52.4995 171.558 52.8296C171.503 53.1597 171.475 53.4792 171.475 53.7881C171.475 54.1943 171.507 54.571 171.571 54.918C171.638 55.2607 171.744 55.5675 171.888 55.8384C172.032 56.1092 172.212 56.3229 172.427 56.4795C172.647 56.6318 172.918 56.708 173.24 56.708C173.769 56.708 174.188 56.452 174.497 55.9399C174.806 55.4279 174.96 54.7212 174.96 53.8198ZM181.376 57.165C180.471 57.165 179.762 56.8646 179.25 56.2637C178.738 55.6628 178.482 54.8566 178.482 53.8452C178.482 53.4051 178.55 52.9946 178.685 52.6138C178.825 52.2287 179.026 51.8796 179.288 51.5664C179.538 51.266 179.851 51.0247 180.227 50.8428C180.604 50.6566 181.015 50.5635 181.459 50.5635C182.072 50.5635 182.572 50.7116 182.957 51.0078C183.342 51.2998 183.535 51.6997 183.535 52.2075C183.535 52.4191 183.484 52.6074 183.382 52.7725C183.281 52.9333 183.114 53.0137 182.881 53.0137C182.631 53.0137 182.436 52.9502 182.297 52.8232C182.161 52.6963 182.094 52.5545 182.094 52.3979C182.094 52.2075 182.119 52.0129 182.17 51.814C182.221 51.6108 182.25 51.4627 182.259 51.3696C182.183 51.2384 182.068 51.1517 181.916 51.1094C181.768 51.0628 181.607 51.0396 181.434 51.0396C181.23 51.0396 181.036 51.084 180.85 51.1729C180.668 51.2575 180.49 51.4162 180.316 51.6489C180.16 51.8605 180.033 52.1462 179.935 52.5059C179.838 52.8656 179.789 53.2951 179.789 53.7944C179.789 54.5815 179.963 55.2248 180.31 55.7241C180.661 56.2192 181.12 56.4668 181.687 56.4668C182.098 56.4668 182.441 56.3674 182.716 56.1685C182.995 55.9696 183.253 55.6712 183.49 55.2734L183.896 55.54C183.617 56.0394 183.249 56.4351 182.792 56.7271C182.335 57.019 181.863 57.165 181.376 57.165ZM188.58 57.165C187.674 57.165 186.965 56.8646 186.453 56.2637C185.941 55.6628 185.685 54.8566 185.685 53.8452C185.685 53.4051 185.753 52.9946 185.888 52.6138C186.028 52.2287 186.229 51.8796 186.491 51.5664C186.741 51.266 187.054 51.0247 187.431 50.8428C187.807 50.6566 188.218 50.5635 188.662 50.5635C189.276 50.5635 189.775 50.7116 190.16 51.0078C190.545 51.2998 190.738 51.6997 190.738 52.2075C190.738 52.4191 190.687 52.6074 190.586 52.7725C190.484 52.9333 190.317 53.0137 190.084 53.0137C189.834 53.0137 189.64 52.9502 189.5 52.8232C189.365 52.6963 189.297 52.5545 189.297 52.3979C189.297 52.2075 189.322 52.0129 189.373 51.814C189.424 51.6108 189.454 51.4627 189.462 51.3696C189.386 51.2384 189.272 51.1517 189.119 51.1094C188.971 51.0628 188.81 51.0396 188.637 51.0396C188.434 51.0396 188.239 51.084 188.053 51.1729C187.871 51.2575 187.693 51.4162 187.52 51.6489C187.363 51.8605 187.236 52.1462 187.139 52.5059C187.041 52.8656 186.993 53.2951 186.993 53.7944C186.993 54.5815 187.166 55.2248 187.513 55.7241C187.865 56.2192 188.324 56.4668 188.891 56.4668C189.301 56.4668 189.644 56.3674 189.919 56.1685C190.198 55.9696 190.456 55.6712 190.693 55.2734L191.1 55.54C190.82 56.0394 190.452 56.4351 189.995 56.7271C189.538 57.019 189.066 57.165 188.58 57.165ZM199.947 57H196.907V56.5811C197.004 56.5726 197.103 56.5641 197.205 56.5557C197.311 56.5472 197.402 56.5303 197.478 56.5049C197.596 56.4668 197.687 56.4012 197.751 56.3081C197.814 56.2108 197.846 56.0859 197.846 55.9336V52.6455L194.964 55.7622V55.8701C194.964 56.014 194.994 56.1325 195.053 56.2256C195.112 56.3187 195.201 56.3906 195.32 56.4414C195.413 56.4837 195.51 56.5155 195.612 56.5366C195.717 56.5578 195.827 56.5726 195.942 56.5811V57H192.901V56.5811C192.998 56.5726 193.098 56.5641 193.2 56.5557C193.305 56.5472 193.396 56.5303 193.472 56.5049C193.591 56.4668 193.678 56.4012 193.733 56.3081C193.792 56.2108 193.822 56.0859 193.822 55.9336V51.8711C193.822 51.7314 193.792 51.6151 193.733 51.522C193.673 51.4246 193.585 51.3506 193.466 51.2998C193.356 51.249 193.248 51.2152 193.142 51.1982C193.041 51.1813 192.946 51.1686 192.857 51.1602V50.7412H195.897V51.1602C195.775 51.1686 195.667 51.1792 195.574 51.1919C195.485 51.2046 195.402 51.2194 195.326 51.2363C195.207 51.2702 195.119 51.3379 195.059 51.4395C195.004 51.5368 194.977 51.6595 194.977 51.8076V55.0449L197.859 51.9219C197.859 51.7357 197.829 51.5981 197.77 51.5093C197.711 51.4204 197.622 51.3506 197.503 51.2998C197.393 51.249 197.283 51.2152 197.173 51.1982C197.067 51.1813 196.97 51.1686 196.881 51.1602V50.7412H199.922V51.1602C199.799 51.1686 199.691 51.1792 199.598 51.1919C199.509 51.2046 199.427 51.2194 199.35 51.2363C199.232 51.2702 199.143 51.3379 199.084 51.4395C199.029 51.5368 199.001 51.6595 199.001 51.8076V55.8701C199.001 56.0182 199.027 56.1388 199.077 56.2319C199.128 56.3208 199.215 56.3906 199.338 56.4414C199.427 56.4837 199.522 56.5155 199.623 56.5366C199.729 56.5578 199.837 56.5726 199.947 56.5811V57ZM209.207 57H206.167V56.5811C206.264 56.5726 206.363 56.5641 206.465 56.5557C206.571 56.5472 206.662 56.5303 206.738 56.5049C206.856 56.4668 206.947 56.4012 207.011 56.3081C207.074 56.2108 207.106 56.0859 207.106 55.9336V52.6455L204.224 55.7622V55.8701C204.224 56.014 204.254 56.1325 204.313 56.2256C204.372 56.3187 204.461 56.3906 204.58 56.4414C204.673 56.4837 204.77 56.5155 204.872 56.5366C204.977 56.5578 205.087 56.5726 205.202 56.5811V57H202.161V56.5811C202.258 56.5726 202.358 56.5641 202.459 56.5557C202.565 56.5472 202.656 56.5303 202.732 56.5049C202.851 56.4668 202.938 56.4012 202.993 56.3081C203.052 56.2108 203.082 56.0859 203.082 55.9336V51.8711C203.082 51.7314 203.052 51.6151 202.993 51.522C202.933 51.4246 202.845 51.3506 202.726 51.2998C202.616 51.249 202.508 51.2152 202.402 51.1982C202.301 51.1813 202.206 51.1686 202.117 51.1602V50.7412H205.157V51.1602C205.035 51.1686 204.927 51.1792 204.833 51.1919C204.745 51.2046 204.662 51.2194 204.586 51.2363C204.467 51.2702 204.379 51.3379 204.319 51.4395C204.264 51.5368 204.237 51.6595 204.237 51.8076V55.0449L207.119 51.9219C207.119 51.7357 207.089 51.5981 207.03 51.5093C206.971 51.4204 206.882 51.3506 206.763 51.2998C206.653 51.249 206.543 51.2152 206.433 51.1982C206.327 51.1813 206.23 51.1686 206.141 51.1602V50.7412H209.182V51.1602C209.059 51.1686 208.951 51.1792 208.858 51.1919C208.769 51.2046 208.687 51.2194 208.61 51.2363C208.492 51.2702 208.403 51.3379 208.344 51.4395C208.289 51.5368 208.261 51.6595 208.261 51.8076V55.8701C208.261 56.0182 208.287 56.1388 208.337 56.2319C208.388 56.3208 208.475 56.3906 208.598 56.4414C208.687 56.4837 208.782 56.5155 208.883 56.5366C208.989 56.5578 209.097 56.5726 209.207 56.5811V57Z" fill="white"/>
<path d="M18.5 12.2969C18.5 13.4531 18.2708 14.4792 17.8125 15.375C17.3646 16.2604 16.7396 16.9948 15.9375 17.5781C15.1458 18.1615 14.276 18.5885 13.3281 18.8594C12.3802 19.1302 11.375 19.2656 10.3125 19.2656H7.82812V25.9844C7.82812 26.349 7.88542 26.6719 8 26.9531C8.125 27.224 8.375 27.4323 8.75 27.5781C8.9375 27.651 9.26562 27.7188 9.73438 27.7812C10.2135 27.8438 10.651 27.8802 11.0469 27.8906V29H1.53125V27.8906C1.78125 27.8698 2.14062 27.8333 2.60938 27.7812C3.08854 27.7292 3.42188 27.6615 3.60938 27.5781C3.92188 27.4427 4.14583 27.2448 4.28125 26.9844C4.42708 26.724 4.5 26.3906 4.5 25.9844V9.98438C4.5 9.61979 4.44792 9.29167 4.34375 9C4.23958 8.70833 3.99479 8.48958 3.60938 8.34375C3.21354 8.20833 2.81771 8.11458 2.42188 8.0625C2.03646 8 1.70312 7.95833 1.42188 7.9375V6.82812H11.5469C13.6094 6.82812 15.2812 7.32812 16.5625 8.32812C17.8542 9.31771 18.5 10.6406 18.5 12.2969ZM13.75 16.0781C14.1042 15.5781 14.3385 15.0625 14.4531 14.5312C14.5677 13.9896 14.625 13.5052 14.625 13.0781C14.625 12.4844 14.5521 11.8802 14.4062 11.2656C14.2708 10.651 14.0312 10.1146 13.6875 9.65625C13.3229 9.16667 12.8438 8.78646 12.25 8.51562C11.6562 8.24479 10.9167 8.10938 10.0312 8.10938H7.82812V17.9062H9.42188C10.5469 17.9062 11.4583 17.7344 12.1562 17.3906C12.8646 17.0365 13.3958 16.599 13.75 16.0781ZM37.17 28.7188C36.6804 28.8958 36.2481 29.0365 35.8731 29.1406C35.5085 29.2552 35.0919 29.3125 34.6231 29.3125C33.8106 29.3125 33.1596 29.125 32.67 28.75C32.1908 28.3646 31.8835 27.8073 31.7481 27.0781H31.6544C30.9773 27.8281 30.2481 28.401 29.4669 28.7969C28.696 29.1927 27.7638 29.3906 26.67 29.3906C25.5138 29.3906 24.5606 29.0365 23.8106 28.3281C23.071 27.6198 22.7013 26.6927 22.7013 25.5469C22.7013 24.9531 22.7846 24.4219 22.9513 23.9531C23.1179 23.4844 23.3679 23.0625 23.7013 22.6875C23.9617 22.375 24.3054 22.099 24.7325 21.8594C25.1596 21.6094 25.5606 21.4115 25.9356 21.2656C26.4044 21.0885 27.3523 20.7604 28.7794 20.2812C30.2169 19.8021 31.1856 19.4271 31.6856 19.1562V17.6094C31.6856 17.474 31.6544 17.2135 31.5919 16.8281C31.5398 16.4427 31.42 16.0781 31.2325 15.7344C31.0242 15.349 30.7273 15.0156 30.3419 14.7344C29.9669 14.4427 29.4304 14.2969 28.7325 14.2969C28.2533 14.2969 27.8054 14.3802 27.3888 14.5469C26.9825 14.7031 26.696 14.8698 26.5294 15.0469C26.5294 15.2552 26.5763 15.5625 26.67 15.9688C26.7742 16.375 26.8263 16.75 26.8263 17.0938C26.8263 17.4583 26.6596 17.7917 26.3263 18.0938C26.0033 18.3958 25.5502 18.5469 24.9669 18.5469C24.446 18.5469 24.0606 18.3646 23.8106 18C23.571 17.625 23.4513 17.2083 23.4513 16.75C23.4513 16.2708 23.6179 15.8125 23.9513 15.375C24.295 14.9375 24.7377 14.5469 25.2794 14.2031C25.7481 13.9115 26.3158 13.6667 26.9825 13.4688C27.6492 13.2604 28.3002 13.1562 28.9356 13.1562C29.8106 13.1562 30.571 13.2188 31.2169 13.3438C31.8731 13.4583 32.4669 13.7135 32.9981 14.1094C33.5294 14.4948 33.9304 15.0208 34.2013 15.6875C34.4825 16.3438 34.6231 17.1927 34.6231 18.2344C34.6231 19.724 34.6075 21.0469 34.5763 22.2031C34.545 23.349 34.5294 24.6042 34.5294 25.9688C34.5294 26.375 34.5971 26.6979 34.7325 26.9375C34.8783 27.1771 35.0971 27.3802 35.3888 27.5469C35.545 27.6406 35.7898 27.6927 36.1231 27.7031C36.4669 27.7135 36.8158 27.7188 37.17 27.7188V28.7188ZM31.7169 20.4688C30.8315 20.7292 30.0554 20.9844 29.3888 21.2344C28.7221 21.4844 28.1023 21.7969 27.5294 22.1719C27.0085 22.526 26.5971 22.9479 26.295 23.4375C25.9929 23.9167 25.8419 24.4896 25.8419 25.1562C25.8419 26.0208 26.0658 26.6562 26.5138 27.0625C26.9721 27.4688 27.5502 27.6719 28.2481 27.6719C28.9877 27.6719 29.6388 27.4948 30.2013 27.1406C30.7638 26.776 31.2377 26.349 31.6231 25.8594L31.7169 20.4688ZM63.5744 14.5938C63.1369 14.6354 62.6629 14.8177 62.1525 15.1406C61.6525 15.4635 61.2879 15.9479 61.0588 16.5938C60.5379 18.125 60.0431 19.5781 59.5744 20.9531C59.116 22.3177 58.6004 23.8542 58.0275 25.5625C57.84 26.1042 57.6473 26.6875 57.4494 27.3125C57.2619 27.9375 57.09 28.5365 56.9338 29.1094H55.59L51.4494 17.7656L47.2775 29.1094H45.9963C45.215 26.7969 44.4494 24.5052 43.6994 22.2344C42.9598 19.9531 42.3035 17.9688 41.7306 16.2812C41.564 15.7917 41.2463 15.4062 40.7775 15.125C40.3088 14.8438 39.8556 14.6771 39.4181 14.625V13.5938H46.2931V14.6875C45.9494 14.6979 45.5744 14.7552 45.1681 14.8594C44.7723 14.9635 44.5744 15.1354 44.5744 15.375C44.5744 15.4167 44.59 15.5052 44.6213 15.6406C44.6629 15.776 44.7098 15.9219 44.7619 16.0781C45.0952 17.1719 45.4702 18.3958 45.8869 19.75C46.314 21.0938 46.8608 22.8438 47.5275 25L51.465 13.9062H52.965L56.9806 24.8438C57.4285 23.4479 57.8713 22.099 58.3088 20.7969C58.7567 19.4844 59.1473 18.2552 59.4806 17.1094C59.5535 16.8385 59.6213 16.5938 59.6838 16.375C59.7567 16.1458 59.7931 15.9219 59.7931 15.7031C59.7931 15.5156 59.7098 15.349 59.5431 15.2031C59.3765 15.0573 59.1733 14.9375 58.9338 14.8438C58.7254 14.7604 58.4963 14.6979 58.2463 14.6562C58.0067 14.6146 57.8296 14.5938 57.715 14.5938V13.5938H63.5744V14.5938ZM77.6038 6.67188C77.6038 7.14062 77.4788 7.53646 77.2288 7.85938C76.9788 8.18229 76.5985 8.34375 76.0881 8.34375C75.7652 8.34375 75.4788 8.27604 75.2288 8.14062C74.9892 8.00521 74.7652 7.82292 74.5569 7.59375C74.3485 7.36458 74.1558 7.10417 73.9788 6.8125C73.8017 6.52083 73.6506 6.28646 73.5256 6.10938C72.8277 6.14062 72.286 6.63021 71.9006 7.57812C71.5256 8.51562 71.3381 10.0156 71.3381 12.0781V13.6562H75.3069V15.1562H71.3381V26.2188C71.3381 26.5833 71.4058 26.8802 71.5413 27.1094C71.6871 27.3385 71.911 27.5104 72.2131 27.625C72.4631 27.7188 72.7965 27.7969 73.2131 27.8594C73.6298 27.9115 73.9892 27.9479 74.2913 27.9688V29H66.1663V27.9688C66.4058 27.9479 66.6506 27.9271 66.9006 27.9062C67.161 27.8854 67.385 27.8438 67.5725 27.7812C67.8642 27.6875 68.0777 27.526 68.2131 27.2969C68.359 27.0573 68.4319 26.75 68.4319 26.375V15.1562H65.385V13.6562H68.4319V12.6719C68.4319 10.3281 69.036 8.43229 70.2444 6.98438C71.4631 5.52604 72.984 4.79688 74.8069 4.79688C75.734 4.79688 76.4319 4.97917 76.9006 5.34375C77.3694 5.70833 77.6038 6.15104 77.6038 6.67188ZM92.1488 25.375C91.5029 26.6042 90.6383 27.5833 89.555 28.3125C88.4717 29.0417 87.2269 29.4062 85.8206 29.4062C84.581 29.4062 83.4925 29.1875 82.555 28.75C81.6279 28.3125 80.8623 27.7188 80.2581 26.9688C79.654 26.2188 79.2008 25.3438 78.8988 24.3438C78.6071 23.3438 78.4613 22.2865 78.4613 21.1719C78.4613 20.1719 78.6175 19.1927 78.93 18.2344C79.2529 17.2656 79.7217 16.3958 80.3363 15.625C80.93 14.8854 81.6644 14.2917 82.5394 13.8438C83.4248 13.3854 84.4144 13.1562 85.5081 13.1562C86.6331 13.1562 87.5967 13.3333 88.3988 13.6875C89.2008 14.0417 89.8519 14.526 90.3519 15.1406C90.831 15.724 91.1852 16.4115 91.4144 17.2031C91.654 17.9948 91.7738 18.8542 91.7738 19.7812V20.8125H81.5706C81.5706 21.8229 81.6644 22.7396 81.8519 23.5625C82.0498 24.3854 82.3571 25.1094 82.7738 25.7344C83.18 26.3385 83.7113 26.8177 84.3675 27.1719C85.0238 27.5156 85.805 27.6875 86.7113 27.6875C87.6383 27.6875 88.4352 27.474 89.1019 27.0469C89.779 26.6094 90.43 25.8281 91.055 24.7031L92.1488 25.375ZM88.6956 19.5C88.6956 18.9167 88.6435 18.2917 88.5394 17.625C88.4456 16.9583 88.2894 16.401 88.0706 15.9531C87.831 15.474 87.5029 15.0833 87.0863 14.7812C86.6696 14.4792 86.1331 14.3281 85.4769 14.3281C84.3831 14.3281 83.4717 14.7865 82.7425 15.7031C82.0238 16.6094 81.6331 17.875 81.5706 19.5H88.6956ZM102.975 29.4062C100.746 29.4062 99.001 28.6667 97.7406 27.1875C96.4802 25.7083 95.85 23.724 95.85 21.2344C95.85 20.151 96.0167 19.1406 96.35 18.2031C96.6937 17.2552 97.1885 16.3958 97.8344 15.625C98.449 14.8854 99.2198 14.2917 100.147 13.8438C101.074 13.3854 102.084 13.1562 103.178 13.1562C104.689 13.1562 105.918 13.5208 106.866 14.25C107.814 14.9688 108.287 15.9531 108.287 17.2031C108.287 17.724 108.162 18.1875 107.912 18.5938C107.662 18.9896 107.251 19.1875 106.678 19.1875C106.064 19.1875 105.584 19.0312 105.241 18.7188C104.907 18.4062 104.741 18.0573 104.741 17.6719C104.741 17.2031 104.803 16.724 104.928 16.2344C105.053 15.7344 105.126 15.3698 105.147 15.1406C104.959 14.8177 104.678 14.6042 104.303 14.5C103.939 14.3854 103.543 14.3281 103.116 14.3281C102.616 14.3281 102.136 14.4375 101.678 14.6562C101.23 14.8646 100.793 15.2552 100.366 15.8281C99.9802 16.349 99.6677 17.0521 99.4281 17.9375C99.1885 18.8229 99.0687 19.8802 99.0687 21.1094C99.0687 23.0469 99.4958 24.6302 100.35 25.8594C101.215 27.0781 102.345 27.6875 103.741 27.6875C104.751 27.6875 105.595 27.4427 106.272 26.9531C106.959 26.4635 107.595 25.7292 108.178 24.75L109.178 25.4062C108.491 26.6354 107.584 27.6094 106.459 28.3281C105.334 29.0469 104.173 29.4062 102.975 29.4062ZM121.817 28.3281C121.14 28.6094 120.499 28.8438 119.895 29.0312C119.291 29.2292 118.551 29.3281 117.676 29.3281C116.385 29.3281 115.473 29.0052 114.942 28.3594C114.421 27.7031 114.161 26.7812 114.161 25.5938V15.1562H111.379V13.6562H114.223V8.85938H117.067V13.6562H121.489V15.1562H117.098V23.7656C117.098 24.4115 117.119 24.9531 117.161 25.3906C117.213 25.8177 117.327 26.1927 117.504 26.5156C117.671 26.8177 117.921 27.0469 118.254 27.2031C118.588 27.3594 119.036 27.4375 119.598 27.4375C119.859 27.4375 120.239 27.4167 120.739 27.375C121.249 27.3229 121.609 27.2604 121.817 27.1875V28.3281ZM152.378 29H142.581V27.8906C142.935 27.8802 143.388 27.8438 143.94 27.7812C144.503 27.7188 144.888 27.6302 145.096 27.5156C145.419 27.3177 145.654 27.0938 145.799 26.8438C145.956 26.5833 146.034 26.2604 146.034 25.875V9.75H145.799L138.237 28.6406H137.456L130.253 9.35938H130.049V22.5938C130.049 23.875 130.128 24.849 130.284 25.5156C130.45 26.1823 130.7 26.6615 131.034 26.9531C131.263 27.1719 131.737 27.3802 132.456 27.5781C133.174 27.776 133.643 27.8802 133.862 27.8906V29H124.909V27.8906C125.378 27.849 125.867 27.7708 126.378 27.6562C126.898 27.5417 127.299 27.3698 127.581 27.1406C127.945 26.849 128.195 26.401 128.331 25.7969C128.466 25.1927 128.534 24.1823 128.534 22.7656V11.4219C128.534 10.7656 128.456 10.2292 128.299 9.8125C128.143 9.39583 127.919 9.05729 127.628 8.79688C127.305 8.51562 126.909 8.30729 126.44 8.17188C125.971 8.03646 125.508 7.95833 125.049 7.9375V6.82812H132.612L138.956 23.4531L144.378 9.54688C144.575 9.03646 144.742 8.50521 144.878 7.95312C145.023 7.39062 145.101 7.01562 145.112 6.82812H152.346V7.9375C152.055 7.94792 151.68 7.99479 151.221 8.07812C150.773 8.16146 150.445 8.23958 150.237 8.3125C149.883 8.4375 149.643 8.64583 149.518 8.9375C149.393 9.22917 149.331 9.54688 149.331 9.89062V25.875C149.331 26.2396 149.393 26.5469 149.518 26.7969C149.643 27.0469 149.883 27.2656 150.237 27.4531C150.424 27.5573 150.758 27.6562 151.237 27.75C151.716 27.8333 152.096 27.8802 152.378 27.8906V29ZM171.485 28.7188C170.995 28.8958 170.563 29.0365 170.188 29.1406C169.824 29.2552 169.407 29.3125 168.938 29.3125C168.126 29.3125 167.475 29.125 166.985 28.75C166.506 28.3646 166.199 27.8073 166.063 27.0781H165.969C165.292 27.8281 164.563 28.401 163.782 28.7969C163.011 29.1927 162.079 29.3906 160.985 29.3906C159.829 29.3906 158.876 29.0365 158.126 28.3281C157.386 27.6198 157.016 26.6927 157.016 25.5469C157.016 24.9531 157.1 24.4219 157.266 23.9531C157.433 23.4844 157.683 23.0625 158.016 22.6875C158.277 22.375 158.62 22.099 159.048 21.8594C159.475 21.6094 159.876 21.4115 160.251 21.2656C160.719 21.0885 161.667 20.7604 163.094 20.2812C164.532 19.8021 165.501 19.4271 166.001 19.1562V17.6094C166.001 17.474 165.969 17.2135 165.907 16.8281C165.855 16.4427 165.735 16.0781 165.548 15.7344C165.339 15.349 165.042 15.0156 164.657 14.7344C164.282 14.4427 163.745 14.2969 163.048 14.2969C162.568 14.2969 162.12 14.3802 161.704 14.5469C161.298 14.7031 161.011 14.8698 160.844 15.0469C160.844 15.2552 160.891 15.5625 160.985 15.9688C161.089 16.375 161.141 16.75 161.141 17.0938C161.141 17.4583 160.975 17.7917 160.641 18.0938C160.318 18.3958 159.865 18.5469 159.282 18.5469C158.761 18.5469 158.376 18.3646 158.126 18C157.886 17.625 157.766 17.2083 157.766 16.75C157.766 16.2708 157.933 15.8125 158.266 15.375C158.61 14.9375 159.053 14.5469 159.594 14.2031C160.063 13.9115 160.631 13.6667 161.298 13.4688C161.964 13.2604 162.615 13.1562 163.251 13.1562C164.126 13.1562 164.886 13.2188 165.532 13.3438C166.188 13.4583 166.782 13.7135 167.313 14.1094C167.844 14.4948 168.245 15.0208 168.516 15.6875C168.798 16.3438 168.938 17.1927 168.938 18.2344C168.938 19.724 168.923 21.0469 168.891 22.2031C168.86 23.349 168.844 24.6042 168.844 25.9688C168.844 26.375 168.912 26.6979 169.048 26.9375C169.193 27.1771 169.412 27.3802 169.704 27.5469C169.86 27.6406 170.105 27.6927 170.438 27.7031C170.782 27.7135 171.131 27.7188 171.485 27.7188V28.7188ZM166.032 20.4688C165.146 20.7292 164.37 20.9844 163.704 21.2344C163.037 21.4844 162.417 21.7969 161.844 22.1719C161.324 22.526 160.912 22.9479 160.61 23.4375C160.308 23.9167 160.157 24.4896 160.157 25.1562C160.157 26.0208 160.381 26.6562 160.829 27.0625C161.287 27.4688 161.865 27.6719 162.563 27.6719C163.303 27.6719 163.954 27.4948 164.516 27.1406C165.079 26.776 165.553 26.349 165.938 25.8594L166.032 20.4688ZM184.452 28.3281C183.775 28.6094 183.134 28.8438 182.53 29.0312C181.926 29.2292 181.186 29.3281 180.311 29.3281C179.02 29.3281 178.108 29.0052 177.577 28.3594C177.056 27.7031 176.796 26.7812 176.796 25.5938V15.1562H174.014V13.6562H176.858V8.85938H179.702V13.6562H184.124V15.1562H179.733V23.7656C179.733 24.4115 179.754 24.9531 179.796 25.3906C179.848 25.8177 179.962 26.1927 180.139 26.5156C180.306 26.8177 180.556 27.0469 180.889 27.2031C181.223 27.3594 181.671 27.4375 182.233 27.4375C182.494 27.4375 182.874 27.4167 183.374 27.375C183.884 27.3229 184.244 27.2604 184.452 27.1875V28.3281ZM195.044 29.4062C192.815 29.4062 191.07 28.6667 189.809 27.1875C188.549 25.7083 187.919 23.724 187.919 21.2344C187.919 20.151 188.085 19.1406 188.419 18.2031C188.762 17.2552 189.257 16.3958 189.903 15.625C190.518 14.8854 191.289 14.2917 192.216 13.8438C193.143 13.3854 194.153 13.1562 195.247 13.1562C196.757 13.1562 197.986 13.5208 198.934 14.25C199.882 14.9688 200.356 15.9531 200.356 17.2031C200.356 17.724 200.231 18.1875 199.981 18.5938C199.731 18.9896 199.32 19.1875 198.747 19.1875C198.132 19.1875 197.653 19.0312 197.309 18.7188C196.976 18.4062 196.809 18.0573 196.809 17.6719C196.809 17.2031 196.872 16.724 196.997 16.2344C197.122 15.7344 197.195 15.3698 197.216 15.1406C197.028 14.8177 196.747 14.6042 196.372 14.5C196.007 14.3854 195.611 14.3281 195.184 14.3281C194.684 14.3281 194.205 14.4375 193.747 14.6562C193.299 14.8646 192.861 15.2552 192.434 15.8281C192.049 16.349 191.736 17.0521 191.497 17.9375C191.257 18.8229 191.137 19.8802 191.137 21.1094C191.137 23.0469 191.565 24.6302 192.419 25.8594C193.283 27.0781 194.414 27.6875 195.809 27.6875C196.82 27.6875 197.664 27.4427 198.341 26.9531C199.028 26.4635 199.664 25.7292 200.247 24.75L201.247 25.4062C200.559 26.6354 199.653 27.6094 198.528 28.3281C197.403 29.0469 196.242 29.4062 195.044 29.4062ZM221.104 29H213.542V27.9688C213.781 27.9479 214.047 27.9271 214.339 27.9062C214.63 27.8854 214.87 27.8438 215.057 27.7812C215.349 27.6875 215.563 27.526 215.698 27.2969C215.844 27.0573 215.917 26.75 215.917 26.375V18.4531C215.917 17.3594 215.656 16.5156 215.136 15.9219C214.625 15.3281 214 15.0312 213.261 15.0312C212.719 15.0312 212.214 15.1198 211.745 15.2969C211.287 15.4635 210.875 15.6719 210.511 15.9219C210.156 16.1823 209.886 16.4427 209.698 16.7031C209.511 16.9635 209.365 17.1823 209.261 17.3594V26.2188C209.261 26.5729 209.328 26.8646 209.464 27.0938C209.61 27.3229 209.828 27.5 210.12 27.625C210.349 27.7292 210.584 27.8073 210.823 27.8594C211.073 27.9115 211.344 27.9479 211.636 27.9688V29H204.073V27.9688C204.313 27.9479 204.563 27.9271 204.823 27.9062C205.084 27.875 205.302 27.8333 205.479 27.7812C205.771 27.6875 205.99 27.526 206.136 27.2969C206.281 27.0573 206.354 26.75 206.354 26.375V8.4375C206.354 8.08333 206.271 7.72917 206.104 7.375C205.948 7.02083 205.74 6.75521 205.479 6.57812C205.292 6.44271 204.959 6.34896 204.479 6.29688C204.011 6.23438 203.63 6.19271 203.339 6.17188V5.17188L209.042 4.8125L209.261 5.04688V15.7969H209.323C209.667 15.4531 209.979 15.151 210.261 14.8906C210.542 14.6198 210.912 14.3385 211.37 14.0469C211.766 13.7969 212.229 13.5885 212.761 13.4219C213.302 13.2552 213.906 13.1719 214.573 13.1719C215.948 13.1719 217.005 13.6094 217.745 14.4844C218.485 15.349 218.854 16.599 218.854 18.2344V26.25C218.854 26.6146 218.917 26.9115 219.042 27.1406C219.177 27.3594 219.396 27.5312 219.698 27.6562C219.938 27.75 220.151 27.8229 220.339 27.875C220.537 27.9167 220.792 27.9479 221.104 27.9688V29Z" fill="#F1CDB3"/>
</svg>
